<?xml version="1.0" encoding="UTF-8"?>
<svg id="Layer_2" xmlns="http://www.w3.org/2000/svg" xmlns:xlink="http://www.w3.org/1999/xlink" viewBox="0 0 285.23 66.91">
  <defs>
    <style>
      .cls-1 {
        fill: none;
      }

      .cls-2 {
        fill: url(#linear-gradient-3);
      }

      .cls-3 {
        fill: url(#linear-gradient-2);
      }

      .cls-4 {
        fill: url(#linear-gradient);
      }

      .cls-5 {
        fill: #2b3990;
      }
    </style>
    <linearGradient id="linear-gradient" x1="-5.55" y1="74.87" x2="40.89" y2="28.43" gradientUnits="userSpaceOnUse">
      <stop offset=".32" stop-color="#2b3990"/>
      <stop offset=".92" stop-color="#1c75bc"/>
    </linearGradient>
    <linearGradient id="linear-gradient-2" x1="-22.06" y1="58.34" x2="24.38" y2="11.91" xlink:href="#linear-gradient"/>
    <linearGradient id="linear-gradient-3" x1="-17.23" y1="63.2" x2="29.21" y2="16.75" xlink:href="#linear-gradient"/>
  </defs>
  <g id="Layer_1-2" data-name="Layer_1">
    <g>
      <path class="cls-5" d="M87.91,38.78c-.42-.06-.48-.18-.48-.54v-5.38c0-.3.18-.36.42-.36h13.67c.42,0,.48.12.48.48v19.71c.06.3-.06.48-.36.54-4.23,1.63-8.4,2.06-11.91,2.06-14.15,0-21.22-9.01-21.22-20.19,0-12.58,8.95-20.74,22.31-20.74,4.05,0,7.62.42,9.8,1.45.24.12.36.36.36.72v5.8c0,.36-.24.42-.48.3-2.72-1.39-5.87-1.75-9.43-1.75-9.73-.12-15,5.2-15,13.97,0,7.86,4.84,14.03,14.03,14.03,2.06,0,3.39-.18,4.6-.54v-9.37l-6.77-.18Z"/>
      <path class="cls-5" d="M134.48,48.03c0,3.15.24,4.96.36,6.23.06.3-.12.42-.48.42h-5.56c-.42,0-.54-.12-.6-.36-.18-.6-.36-1.51-.42-2.12-2.6,2.42-5.68,3.08-8.4,3.08-5.74,0-10.16-3.08-10.16-11.55v-18.44c0-.36.12-.42.48-.42h6.35c.36,0,.42.12.42.42v17.6c0,3.75,1.63,6.05,5.26,6.05,2.3,0,3.99-.79,5.5-2.18v-21.47c0-.3.12-.42.48-.42h6.35c.36,0,.42.12.42.42v22.74Z"/>
      <path class="cls-5" d="M149.49,54.26c0,.3-.06.42-.42.42h-6.41c-.36,0-.48-.18-.48-.48V12.05c0-.24.12-.42.48-.42h6.41c.36,0,.42.12.42.42v15c2.3-1.69,4.84-2.78,8.28-2.78,4.6,0,10.1,2.3,10.1,11.97v17.9c0,.42-.18.54-.48.54h-6.29c-.36,0-.54-.18-.54-.54v-17.17c0-4.05-1.75-6.35-5.26-6.35-2.24,0-4.23.73-5.8,2.12v21.53Z"/>
      <path class="cls-5" d="M197.93,48.51c0,1.33,0,2.54.12,3.81,0,.12,0,.18-.12.24-4.96,2.12-8.46,2.72-12.58,2.72-6.59,0-11.85-3.08-11.85-9.92,0-6.41,5.74-9.61,13.6-9.61,1.81,0,3.2.06,3.75.12v-.72c0-1.39-.78-4.54-6.11-4.54-3.02,0-5.68.61-7.92,1.69-.18.06-.49,0-.49-.36v-5.26c0-.3.06-.42.36-.6,2.6-1.21,5.93-1.81,9.19-1.81,8.41,0,12.03,5.26,12.03,11.97v12.27ZM190.85,41.38c-.91-.12-1.93-.18-3.32-.18-4.78,0-6.89,1.57-6.89,4.17,0,2.24,1.57,4.17,5.93,4.17,1.57,0,2.96-.18,4.29-.72v-7.44Z"/>
      <path class="cls-5" d="M208.7,21.55h-12.27c-.3,0-.42-.18-.36-.49l.79-5.62c.06-.36.18-.48.54-.48h30.05c.36,0,.54.12.6.54l.54,5.5c.06.36-.12.55-.42.55h-12.21v32.59c0,.36-.18.54-.48.54h-6.23c-.42.06-.54-.12-.54-.54V21.55Z"/>
      <path class="cls-5" d="M232.65,41.44c.18,4.23,2.96,7.62,9.13,7.62,2.72,0,5.2-.48,7.5-1.45.18-.12.36-.06.36.24v5.02c0,.36-.12.54-.36.67-2.3,1.09-4.96,1.75-9.07,1.75-11.01,0-14.94-7.74-14.94-15.18,0-8.41,5.08-15.84,14.21-15.84s12.4,7.02,12.4,12.76c0,1.69-.06,3.08-.24,3.75-.06.24-.18.36-.48.42-.85.18-3.27.24-6.23.24h-12.28ZM241.66,36.24c2.3,0,3.08,0,3.33-.06v-.48c0-1.75-1.21-5.62-5.8-5.62-4.17,0-6.05,3.21-6.53,6.17h9.01Z"/>
      <path class="cls-5" d="M283.15,24.87c.42,0,.54.24.3.55-1.81,2.12-9.67,10.4-11.97,12.82-.06.06,0,.12,0,.24,3.69,4.23,9.67,11.19,13.67,15.66.18.24.06.54-.3.54h-8.28c-.42,0-.55-.12-.79-.42-2.24-2.54-8.16-9.8-11.13-13.36v13.24c0,.42-.12.54-.48.54h-6.35c-.42,0-.54-.12-.54-.54V12.11c0-.3.12-.48.54-.48h6.35c.3,0,.48.12.48.48v25.58c3.21-3.57,9.55-10.89,10.95-12.46.24-.3.42-.36.72-.36h6.83Z"/>
    </g>
    <g>
      <path class="cls-4" d="M27.3,36.9h-10.55c-3.85,0-5.24-1.3-5.24-3.41,0-2.25.65-3.72,1.99-5.5l-2.38-1.48c-5.62,4.41-8.93,8.56-8.93,13.29,0,3.08,1.56,5.73,5.29,7.27C2.43,49.38,0,52.54,0,56.35,0,58.09.43,59.78,1.49,61.27c.37-.88,6.01-14.22,6.01-14.22,0,0,.49.33,1.19.54-.21.47-5.63,13.59-6.11,14.93,2.72,2.6,7.87,4.38,16.76,4.38,17.36,0,26.52-7.63,26.52-16.83,0-7.83-4.8-13.19-18.56-13.19ZM20.78,61.55c-8.21,0-12.04-2.28-12.04-7.65,0-2.17.42-3.54,1.45-5.27,2.19.62,4.99.85,8.16.85h9.48c4.9,0,6.64,2.55,6.64,5.18,0,3.91-4.61,6.89-13.7,6.89Z"/>
      <path class="cls-3" d="M20.71,1.09C7.85,1.09,1.78,7.3,1.78,15.7c0,6.86,4.11,12.21,12.8,13.87l1.59-3.86c-1.15-.63-3.54-2.34-3.54-5.8,0-6.71,12.82-15.2,12.82-15.2,0,0,3.27,15.08-1.44,19.87-2.37,2.41-5.2,2.03-6.54,1.65l-1.47,3.58c1.45.2,3.01.31,4.69.31,12.83,0,18.9-6.28,18.9-14.42,0-8.56-6.02-14.61-18.87-14.61Z"/>
      <polygon class="cls-2" points="44.63 0 46.05 .9 46.05 7.87 33.11 7.87 33.11 4.91 44.63 0"/>
      <line class="cls-1" x1="25.45" y1="4.7" x2="1.36" y2="63.65"/>
    </g>
  </g>
</svg>